HIERARCHY
ROOT Pelvis
{
	OFFSET 0.000000 0.000000 0.000000
	CHANNELS 6 Xposition Yposition Zposition Zrotation Yrotation Xrotation 
	JOINT Left_hip
	{
		OFFSET 0.070241 -0.085575 -0.010474
		CHANNELS 3 Zrotation Yrotation Xrotation
		JOINT Left_knee
		{
			OFFSET 0.032125 -0.356873 -0.000555
			CHANNELS 3 Zrotation Yrotation Xrotation
			JOINT Left_ankle
			{
				OFFSET -0.010961 -0.370212 -0.042278
				CHANNELS 3 Zrotation Yrotation Xrotation
				JOINT Left_foot
				{
					OFFSET 0.023322 -0.052281 0.110104
					CHANNELS 3 Zrotation Yrotation Xrotation
					End Site
					{
						OFFSET 0.000000 0.000000 0.000000
					}
				}
			}
		}
	}
	JOINT Right_hip
	{
		OFFSET -0.068518 -0.084320 -0.007402
		CHANNELS 3 Zrotation Yrotation Xrotation
		JOINT Right_knee
		{
			OFFSET -0.037345 -0.364815 -0.003619
			CHANNELS 3 Zrotation Yrotation Xrotation
			JOINT Right_ankle
			{
				OFFSET 0.013394 -0.370006 -0.039954
				CHANNELS 3 Zrotation Yrotation Xrotation
				JOINT Right_foot
				{
					OFFSET -0.019600 -0.045455 0.113223
					CHANNELS 3 Zrotation Yrotation Xrotation
					End Site
					{
						OFFSET 0.000000 0.000000 0.000000
					}
				}
			}
		}
	}
	JOINT Spine1
	{
		OFFSET -0.002404 0.098129 -0.018169
		CHANNELS 3 Zrotation Yrotation Xrotation
		JOINT Spine2
		{
			OFFSET 0.003989 0.127209 -0.001742
			CHANNELS 3 Zrotation Yrotation Xrotation
			JOINT Spine3
			{
				OFFSET 0.001758 0.046641 0.023475
				CHANNELS 3 Zrotation Yrotation Xrotation
				JOINT Neck
				{
					OFFSET -0.003759 0.194901 -0.039982
					CHANNELS 3 Zrotation Yrotation Xrotation
					JOINT Head
					{
						OFFSET 0.003999 0.063756 0.047665
						CHANNELS 3 Zrotation Yrotation Xrotation
						End Site
						{
							OFFSET 0.000000 0.000000 0.000000
						}
					}
				}
				JOINT Left_collar
				{
					OFFSET 0.071816 0.109048 -0.028973
					CHANNELS 3 Zrotation Yrotation Xrotation
					JOINT Left_shoulder
					{
						OFFSET 0.084027 0.032269 -0.006525
						CHANNELS 3 Zrotation Yrotation Xrotation
						JOINT Left_elbow
						{
							OFFSET 0.243854 -0.013992 -0.025905
							CHANNELS 3 Zrotation Yrotation Xrotation
							JOINT Left_wrist
							{
								OFFSET 0.232156 0.008196 -0.000339
								CHANNELS 3 Zrotation Yrotation Xrotation
								JOINT Left_palm
								{
									OFFSET 0.075377 -0.009461 -0.012494
									CHANNELS 3 Zrotation Yrotation Xrotation
									End Site
									{
										OFFSET 0.000000 0.000000 0.000000
									}
								}
							}
						}
					}
				}
				JOINT Right_collar
				{
					OFFSET -0.073768 0.107001 -0.033755
					CHANNELS 3 Zrotation Yrotation Xrotation
					JOINT Right_shoulder
					{
						OFFSET -0.086837 0.032868 -0.009431
						CHANNELS 3 Zrotation Yrotation Xrotation
						JOINT Right_elbow
						{
							OFFSET -0.236446 -0.012544 -0.018747
							CHANNELS 3 Zrotation Yrotation Xrotation
							JOINT Right_wrist
							{
								OFFSET -0.236110 0.006124 -0.004327
								CHANNELS 3 Zrotation Yrotation Xrotation
								JOINT Right_palm
								{
									OFFSET -0.074800 -0.006875 -0.009610
									CHANNELS 3 Zrotation Yrotation Xrotation
									End Site
									{
										OFFSET 0.000000 0.000000 0.000000
									}
								}
							}
						}
					}
				}
			}
		}
	}
}
MOTION
Frames: 5
Frame Time: 0.100000
0.000000 0.000000 0.000000 178.501276 15.668284 -8.421632 -1.378562 5.493316 -1.066677 1.056298 -4.396910 -4.759733 -3.576424 27.380060 -1.747358 10.718387 -5.426032 -0.168819 2.543590 -4.747044 -1.351871 -0.622878 5.968073 -2.370162 -3.755733 -20.464905 -1.575452 11.521121 5.428633 7.017060 1.149839 3.024942 -1.587811 0.273670 -1.481809 -4.485682 -0.297892 3.662811 -0.853162 1.069502 12.219583 9.202990 3.422785 16.183751 11.385185 -9.056981 2.094949 -11.503615 4.770620 -18.223673 -14.034185 5.979171 10.519806 -9.238945 28.276883 -15.794332 24.772032 1.071045 -5.208643 6.784337 8.731135 -0.365646 -5.710887 -7.618343 14.043520 -21.806381 -7.326618 -10.359476 -11.306563 -25.792376 13.432995 32.056369 6.820970 6.947635 1.068668 
0.000188 -0.000058 0.000220 178.448263 16.160358 -8.496724 -1.394078 5.441972 -1.005751 1.031700 -4.675151 -4.824139 -3.651741 27.300439 -1.583867 10.818294 -5.416623 -0.487949 2.516404 -4.828227 -1.226516 -0.683322 5.850860 -2.380333 -3.530369 -20.627358 -1.660972 11.014048 5.470606 6.837853 1.237448 3.041127 -1.396071 0.131110 -1.446594 -4.563173 -0.264189 3.747316 -0.644809 0.483522 12.995147 8.883539 3.163651 16.885514 10.562747 -8.735744 1.759906 -11.466739 4.111577 -18.278161 -13.272553 5.748080 9.900485 -6.566353 27.745672 -16.225453 26.198025 1.019481 -5.271549 6.447920 8.419260 -0.141003 -5.611071 -7.335955 14.081785 -21.548299 -7.018260 -10.242295 -10.150935 -24.670343 13.215193 32.678251 6.963455 7.041820 0.800270 
0.000522 -0.000035 0.000542 178.385430 16.727352 -8.508294 -1.388158 5.306045 -1.118341 0.973348 -4.927397 -4.691830 -3.630973 27.167011 -1.533089 10.823394 -5.363290 -0.549120 2.520587 -4.901072 -1.180972 -0.715030 5.738920 -2.343038 -3.529335 -20.935450 -1.754550 10.648790 5.572106 6.769495 1.129332 3.048188 -1.205315 0.057606 -1.517131 -4.635669 -0.276692 3.693363 -0.603639 0.061379 12.239539 8.338353 3.048929 16.229326 10.376702 -8.609750 1.488600 -11.445928 4.034627 -18.520830 -13.395930 5.892566 9.810856 -6.570628 27.196923 -15.636778 26.838171 0.995311 -5.348912 6.292637 8.487857 0.216808 -5.748223 -6.999424 14.361662 -21.420312 -7.008023 -10.178228 -10.056109 -24.050024 12.563276 32.777499 6.949133 7.161233 0.713813 
0.000678 -0.000117 0.001052 178.319935 17.074890 -8.403723 -1.369222 5.228439 -1.168837 0.989757 -5.084633 -4.845001 -3.659893 27.073668 -1.415849 10.806708 -5.369341 -0.567821 2.552402 -4.940117 -1.181984 -0.730092 5.667990 -2.490594 -3.501224 -21.129003 -1.730404 10.456268 5.687854 6.805242 1.017256 3.097859 -1.167658 0.033692 -1.502184 -4.592644 -0.297485 3.706327 -0.666707 -0.127777 11.370801 8.052551 3.067281 15.400145 10.306689 -8.598625 1.424949 -11.328898 4.035903 -18.489847 -13.239696 5.727417 9.530136 -6.193972 26.820310 -15.571685 27.142765 1.001787 -5.385504 6.114434 8.581465 0.478219 -5.754081 -6.914029 14.396064 -21.325517 -6.957018 -10.141428 -10.052036 -23.936908 12.501500 32.665449 6.893956 7.165218 0.683649 
0.000380 -0.000335 0.001473 178.317128 17.265919 -8.210299 -1.395982 5.127666 -1.354346 1.000357 -5.116648 -4.883766 -3.569324 26.968126 -1.291483 10.648537 -5.292736 -0.538310 2.560722 -4.971136 -1.316197 -0.738186 5.615752 -2.563070 -3.399193 -21.282911 -1.748808 10.160894 5.758270 6.895666 0.987055 3.153410 -1.126701 -0.033816 -1.495114 -4.621317 -0.351918 3.732970 -0.654923 -0.253650 10.641258 8.029652 3.151320 14.765413 10.449272 -8.513340 1.503362 -11.296996 3.825204 -18.370426 -13.155724 5.462444 9.828685 -6.326989 25.440943 -14.787179 27.364611 0.927632 -5.470287 5.744823 8.488402 0.543659 -5.789098 -6.812088 14.389466 -21.344041 -7.083493 -10.010107 -10.312513 -23.204344 11.958228 32.502379 6.953460 7.206803 0.400821 
